<svg xmlns="http://www.w3.org/2000/svg" width="54.604" height="91.287" viewBox="0 0 54.604 91.287">
  <g id="Groupe_170" data-name="Groupe 170" transform="translate(-4 0)">
    <g id="Groupe_171" data-name="Groupe 171" transform="translate(4)">
      <path id="Tracé_965" data-name="Tracé 965" d="M53.943,56.12,32.784,3.716a5.9,5.9,0,0,0-10.961,0L.663,56.12A9.191,9.191,0,0,0,9.187,68.736h16.46V89.669a1.617,1.617,0,0,0,3.235,0V68.736h16.5A9.191,9.191,0,0,0,53.942,56.12Zm-3.616,6.755h0a5.843,5.843,0,0,1-4.91,2.607h-16.5V62.019l13.7-13.7h0a1.627,1.627,0,0,0-2.3-2.3L28.9,57.435V48.11l.228-.153,7.25-7.25a1.621,1.621,0,1,0-2.3-2.283L28.9,43.581V37.11a1.617,1.617,0,0,0-3.235,0V51.382L17.789,43.41a1.636,1.636,0,0,0-2.3,0,1.618,1.618,0,0,0,0,2.3L25.609,55.835h.153V65.35H9.226a5.937,5.937,0,0,1-5.5-8.144L24.849,4.685a2.644,2.644,0,0,1,4.909,0L50.88,57.205a5.864,5.864,0,0,1-.59,5.671Z" transform="translate(0 0)" fill="#319f9a"/>
    </g>
  </g>
</svg>
