<?xml version="1.0" encoding="utf-8"?>
<!-- Generator: Adobe Illustrator 26.3.1, SVG Export Plug-In . SVG Version: 6.00 Build 0)  -->
<svg version="1.1" id="Calque_1" xmlns="http://www.w3.org/2000/svg" xmlns:xlink="http://www.w3.org/1999/xlink" x="0px" y="0px"
	 viewBox="0 0 700 700" style="enable-background:new 0 0 700 700;" xml:space="preserve">
<g>
	<path d="M428.4,311l-62.3-154.2c-1.7-4.3-5.1-7.8-9.4-9.6c-4.3-1.8-9.1-1.8-13.4,0c-4.3,1.8-7.7,5.3-9.4,9.6L271.6,311
		c-3.3,8.3-2.3,17.8,2.7,25.2c5,7.4,13.4,11.9,22.4,11.9h48.4v61.6c0,2.6,2.1,4.8,4.8,4.8s4.8-2.1,4.8-4.8v-61.6h48.6
		c9,0,17.4-4.4,22.5-11.9C430.7,328.8,431.8,319.4,428.4,311L428.4,311z M417.8,330.9L417.8,330.9c-3.2,4.8-8.6,7.7-14.4,7.7h-48.6
		v-10.2l40.3-40.3h0c0.9-0.9,1.4-2.1,1.4-3.4c0-1.3-0.5-2.5-1.4-3.4c-1.9-1.9-4.9-1.9-6.8,0l-33.6,33.6v-27.4l0.7-0.4l21.3-21.3
		c1.9-1.9,1.8-4.9,0-6.8c-1.9-1.9-4.9-1.8-6.7,0l-15.2,15.2l0-19c0-2.6-2.1-4.8-4.8-4.8s-4.8,2.1-4.8,4.8v42L322,273.6
		c-1.9-1.9-4.9-1.9-6.8,0c-0.9,0.9-1.4,2.1-1.4,3.4c0,1.3,0.5,2.5,1.4,3.4l29.8,29.8h0.4v28h-48.7c-5.8,0-11.2-2.9-14.4-7.7
		c-3.2-4.8-3.9-10.9-1.7-16.3l62.2-154.6c1.2-3,4-4.9,7.2-4.9s6,1.9,7.2,4.9l62.2,154.6c2.3,5.5,1.7,11.8-1.7,16.7L417.8,330.9z"/>
	<g>
		<defs>
			<polyline id="SVGID_1_" points="855.6,644 855.6,1344 155.6,1344 			"/>
		</defs>
		<clipPath id="SVGID_00000127741698912850082840000015374030324336111020_">
			<use xlink:href="#SVGID_1_"  style="overflow:visible;"/>
		</clipPath>
	</g>
	<g>
		<defs>
			<polyline id="SVGID_00000171697685136482014160000004852701542931053241_" points="1037.1,644 1037.1,1344 337.1,1344 			"/>
		</defs>
		<clipPath id="SVGID_00000163070425591303836580000012344061813214642358_">
			<use xlink:href="#SVGID_00000171697685136482014160000004852701542931053241_"  style="overflow:visible;"/>
		</clipPath>
	</g>
	<g>
		<defs>
			<polyline id="SVGID_00000123413252773358435950000011994485264094327446_" points="782.2,672 782.2,1372 82.2,1372 			"/>
		</defs>
		<clipPath id="SVGID_00000031174505332795264020000014142589262228200850_">
			<use xlink:href="#SVGID_00000123413252773358435950000011994485264094327446_"  style="overflow:visible;"/>
		</clipPath>
	</g>
	<g>
		<defs>
			<polyline id="SVGID_00000138572216670366006530000012471838893599428516_" points="854.2,672 854.2,1372 154.2,1372 			"/>
		</defs>
		<clipPath id="SVGID_00000159436670102672820450000011366199124450265241_">
			<use xlink:href="#SVGID_00000138572216670366006530000012471838893599428516_"  style="overflow:visible;"/>
		</clipPath>
	</g>
	<g>
		<defs>
			<polyline id="SVGID_00000026866109986691575050000008139546439638080388_" points="867.5,672 867.5,1372 167.5,1372 			"/>
		</defs>
		<clipPath id="SVGID_00000075870473555069281570000012191769914995987840_">
			<use xlink:href="#SVGID_00000026866109986691575050000008139546439638080388_"  style="overflow:visible;"/>
		</clipPath>
	</g>
	<g>
		<defs>
			<polyline id="SVGID_00000079449325259062782230000005249609881316696217_" points="887.5,672 887.5,1372 187.5,1372 			"/>
		</defs>
		<clipPath id="SVGID_00000011753752061091189040000004508329683563575946_">
			<use xlink:href="#SVGID_00000079449325259062782230000005249609881316696217_"  style="overflow:visible;"/>
		</clipPath>
	</g>
	<g>
		<defs>
			<polyline id="SVGID_00000001624470518541224080000017891454495989733267_" points="939.6,672 939.6,1372 239.6,1372 			"/>
		</defs>
		<clipPath id="SVGID_00000132055994140160946810000005476455287359578005_">
			<use xlink:href="#SVGID_00000001624470518541224080000017891454495989733267_"  style="overflow:visible;"/>
		</clipPath>
	</g>
	<g>
		<defs>
			<polyline id="SVGID_00000065060934921301424860000007154801502556057751_" points="978.8,672 978.8,1372 278.8,1372 			"/>
		</defs>
		<clipPath id="SVGID_00000106108525079800944400000012050537103193644433_">
			<use xlink:href="#SVGID_00000065060934921301424860000007154801502556057751_"  style="overflow:visible;"/>
		</clipPath>
	</g>
	<g>
		<defs>
			<polyline id="SVGID_00000049902444704525799090000007335917832422216087_" points="1029,672 1029,1372 329,1372 			"/>
		</defs>
		<clipPath id="SVGID_00000068655838566007808550000013220794187566441368_">
			<use xlink:href="#SVGID_00000049902444704525799090000007335917832422216087_"  style="overflow:visible;"/>
		</clipPath>
	</g>
	<g>
		<defs>
			<polyline id="SVGID_00000092429293039485807100000016808063816035279785_" points="1042.8,672 1042.8,1372 342.8,1372 			"/>
		</defs>
		<clipPath id="SVGID_00000072994178243749612100000016748497787403437978_">
			<use xlink:href="#SVGID_00000092429293039485807100000016808063816035279785_"  style="overflow:visible;"/>
		</clipPath>
	</g>
	<g>
		<defs>
			<polyline id="SVGID_00000024687392214044216150000004248191889601992104_" points="1071.7,672 1071.7,1372 371.7,1372 			"/>
		</defs>
		<clipPath id="SVGID_00000149347710324895401510000006725258590934052540_">
			<use xlink:href="#SVGID_00000024687392214044216150000004248191889601992104_"  style="overflow:visible;"/>
		</clipPath>
	</g>
	<g>
		<defs>
			<polyline id="SVGID_00000035511957138838732960000000330554249978423188_" points="1107.2,672 1107.2,1372 407.2,1372 			"/>
		</defs>
		<clipPath id="SVGID_00000098908086783087986910000016329171669368360637_">
			<use xlink:href="#SVGID_00000035511957138838732960000000330554249978423188_"  style="overflow:visible;"/>
		</clipPath>
	</g>
</g>
</svg>
