<svg xmlns="http://www.w3.org/2000/svg" xmlns:xlink="http://www.w3.org/1999/xlink" width="87.651" height="81.567" viewBox="0 0 87.651 81.567">
  <defs>
    <clipPath id="clip-path">
      <rect id="Rectangle_148" data-name="Rectangle 148" width="87.651" height="81.567" fill="#319f9a"/>
    </clipPath>
  </defs>
  <g id="Groupe_154" data-name="Groupe 154" clip-path="url(#clip-path)">
    <path id="Tracé_945" data-name="Tracé 945" d="M60.408,71.581l.52-1.425H68.17a1.713,1.713,0,0,0,1.606-2.3l-4-10.976L71.951,39.94,83.5,71.582Zm-33.163,0H4.157L15.7,39.939,21.88,56.876l-4,10.976a1.847,1.847,0,0,0-.059.2,1.7,1.7,0,0,0-.03.611,1.71,1.71,0,0,0,1.7,1.492h7.243ZM43.826,6.705l21.9,60.022h-43.8l3.379-9.262h0Zm43.721,66L73.558,34.36a1.709,1.709,0,0,0-3.212,0L63.951,51.887,45.432,1.125a1.709,1.709,0,0,0-3.212,0L23.7,51.887,17.306,34.36a1.709,1.709,0,0,0-3.212,0L.1,72.707a1.713,1.713,0,0,0,1.606,2.3h12.28v4.843a1.71,1.71,0,1,0,3.42,0V75.01H29.69a1.714,1.714,0,0,0,1.606-2.3l-.931-2.55h11.75v9.7a1.71,1.71,0,1,0,3.42,0v-9.7h11.75l-.93,2.55a1.713,1.713,0,0,0,1.606,2.3h12.28v4.843a1.71,1.71,0,1,0,3.42,0V75.01h12.28a1.713,1.713,0,0,0,1.606-2.3Z" transform="translate(0)" fill="#319f9a" fill-rule="evenodd"/>
  </g>
</svg>
