<?xml version="1.0" encoding="utf-8"?>
<!-- Generator: Adobe Illustrator 26.3.1, SVG Export Plug-In . SVG Version: 6.00 Build 0)  -->
<svg version="1.1" id="Calque_1" xmlns="http://www.w3.org/2000/svg" xmlns:xlink="http://www.w3.org/1999/xlink" x="0px" y="0px"
	 viewBox="0 0 700 700" style="enable-background:new 0 0 700 700;" xml:space="preserve">
<g>
	<path d="M180.9,44.8c-3,0.1-5.8,1.5-7.8,3.6c-2,2.2-3.1,5.1-2.9,8.1c0.1,3,1.5,5.8,3.7,7.8c2.2,2,5.1,3,8.1,2.9h11.2v237.1
		c0,3,1.1,5.9,3.2,8c2.1,2.1,5,3.3,8,3.3c3,0,5.9-1.2,8-3.3c2.1-2.1,3.3-5,3.2-8V201.6h123.2v112H215.6v-11.6
		c0.1-3.2-1.3-6.3-3.6-8.5s-5.6-3.2-8.8-2.9c-5.8,0.6-10.1,5.6-10,11.4v11.6h-50.4c-0.4,0-0.7,0-1.1,0c-3,0.1-5.8,1.4-7.8,3.6
		c-2,2.2-3.1,5.1-2.9,8.1c0.1,3,1.5,5.8,3.7,7.8c2.2,2,5.1,3.1,8.1,2.9H154v156.8h-11.2c-0.4,0-0.7,0-1.1,0c-3,0.1-5.8,1.5-7.8,3.6
		c-2,2.2-3.1,5.1-2.9,8.1c0.1,3,1.5,5.8,3.7,7.8c2.2,2,5.1,3,8.1,2.9h414.4c3,0,5.9-1.1,8-3.2c2.1-2.1,3.3-5,3.3-8s-1.2-5.9-3.3-8
		c-2.1-2.1-5-3.3-8-3.2h-16.8V336h16.8c3,0,5.9-1.1,8-3.2c2.1-2.1,3.3-5,3.3-8c0-3-1.2-5.9-3.3-8c-2.1-2.1-5-3.3-8-3.2h-50.4V67.2
		H518c3,0,5.9-1.1,8-3.2c2.1-2.1,3.3-5,3.3-8s-1.2-5.9-3.3-8c-2.1-2.1-5-3.3-8-3.2H182C181.7,44.8,181.3,44.8,180.9,44.8L180.9,44.8
		z M215.6,67.2h123.2v112H215.6L215.6,67.2z M361.2,67.2h123.2v112H361.2L361.2,67.2z M271.3,78.2c-3.3,0.1-6.4,1.7-8.4,4.4
		l-22.4,28c-3.9,4.8-3.1,11.9,1.8,15.8c4.8,3.9,11.9,3.1,15.8-1.8l22.4-28c2.8-3.4,3.4-8.2,1.4-12.2C279.8,80.5,275.7,78,271.3,78.2
		L271.3,78.2z M304.2,100.6c-2.9,0.3-5.6,1.7-7.5,4L263,143.9c-1.9,2.3-2.9,5.2-2.6,8.2c0.2,3,1.7,5.7,3.9,7.6
		c4.7,4,11.8,3.4,15.8-1.3l33.6-39.2c3.1-3.5,3.7-8.5,1.6-12.6C313.2,102.5,308.8,100.1,304.2,100.6L304.2,100.6z M361.2,201.6
		h123.2v112H361.2L361.2,201.6z M416.9,212.6c-3.3,0.1-6.4,1.7-8.4,4.4l-22.4,28c-3.9,4.8-3.1,11.9,1.8,15.8s11.9,3.1,15.8-1.8
		l22.4-28c2.9-3.4,3.4-8.2,1.4-12.2C425.4,214.9,421.3,212.4,416.9,212.6L416.9,212.6z M449.8,235c-2.9,0.3-5.6,1.7-7.5,4
		l-33.6,39.2c-1.9,2.3-2.9,5.2-2.6,8.2c0.2,3,1.7,5.7,3.9,7.6c4.7,4,11.8,3.4,15.8-1.3l33.6-39.2c3.1-3.5,3.7-8.5,1.5-12.6
		C458.8,236.9,454.4,234.5,449.8,235L449.8,235z M176.4,336h50.4v156.8h-50.4V336z M249.2,336h50.4v156.8h-50.4V336z M322,336h50.4
		v156.8H322V336z M394.8,336h50.4v156.8h-50.4V336z M467.6,336H518v156.8h-50.4L467.6,336z"/>
	<g>
		<defs>
			<polyline id="SVGID_1_" points="855.6,644 855.6,1344 155.6,1344 			"/>
		</defs>
		<clipPath id="SVGID_00000096774142930872746580000009327780875207617725_">
			<use xlink:href="#SVGID_1_"  style="overflow:visible;"/>
		</clipPath>
	</g>
	<g>
		<defs>
			<polyline id="SVGID_00000021103089326350838210000001513779671198076831_" points="952.5,644 952.5,1344 252.5,1344 			"/>
		</defs>
		<clipPath id="SVGID_00000160898191881616691140000001003406106123850114_">
			<use xlink:href="#SVGID_00000021103089326350838210000001513779671198076831_"  style="overflow:visible;"/>
		</clipPath>
	</g>
	<g>
		<defs>
			<polyline id="SVGID_00000075846941511086108400000005743875422321149826_" points="1000.6,644 1000.6,1344 300.6,1344 			"/>
		</defs>
		<clipPath id="SVGID_00000167380916278723140330000000625810042893437604_">
			<use xlink:href="#SVGID_00000075846941511086108400000005743875422321149826_"  style="overflow:visible;"/>
		</clipPath>
	</g>
	<g>
		<defs>
			<polyline id="SVGID_00000176012675865559125430000017846991355978352029_" points="1029.8,644 1029.8,1344 329.8,1344 			"/>
		</defs>
		<clipPath id="SVGID_00000139261867664998175090000010274118120570981516_">
			<use xlink:href="#SVGID_00000176012675865559125430000017846991355978352029_"  style="overflow:visible;"/>
		</clipPath>
	</g>
	<g>
		<defs>
			<polyline id="SVGID_00000070076550795757652540000002971073362718886579_" points="1058.4,644 1058.4,1344 358.4,1344 			"/>
		</defs>
		<clipPath id="SVGID_00000014615505521034813030000005062170113259893122_">
			<use xlink:href="#SVGID_00000070076550795757652540000002971073362718886579_"  style="overflow:visible;"/>
		</clipPath>
	</g>
	<g>
		<defs>
			<polyline id="SVGID_00000160893938444822258060000009680211117919480490_" points="1097.2,644 1097.2,1344 397.2,1344 			"/>
		</defs>
		<clipPath id="SVGID_00000005986193543269858140000004697007551227509927_">
			<use xlink:href="#SVGID_00000160893938444822258060000009680211117919480490_"  style="overflow:visible;"/>
		</clipPath>
	</g>
	<g>
		<defs>
			<polyline id="SVGID_00000074410467251781959260000004207823803529243025_" points="1147.1,644 1147.1,1344 447.1,1344 			"/>
		</defs>
		<clipPath id="SVGID_00000162334806486797036240000005092425938377907902_">
			<use xlink:href="#SVGID_00000074410467251781959260000004207823803529243025_"  style="overflow:visible;"/>
		</clipPath>
	</g>
	<g>
		<defs>
			<polyline id="SVGID_00000142167167889495666860000011419348111803901618_" points="1175.7,644 1175.7,1344 475.7,1344 			"/>
		</defs>
		<clipPath id="SVGID_00000005258801688780351880000011782114845370131333_">
			<use xlink:href="#SVGID_00000142167167889495666860000011419348111803901618_"  style="overflow:visible;"/>
		</clipPath>
	</g>
	<g>
		<defs>
			<polyline id="SVGID_00000067941582451810136290000013362462972836567718_" points="782.2,672 782.2,1372 82.2,1372 			"/>
		</defs>
		<clipPath id="SVGID_00000091001414741581553620000013927908026388313730_">
			<use xlink:href="#SVGID_00000067941582451810136290000013362462972836567718_"  style="overflow:visible;"/>
		</clipPath>
	</g>
	<g>
		<defs>
			<polyline id="SVGID_00000145755439869197546860000017695942509526396819_" points="815.2,672 815.2,1372 115.2,1372 			"/>
		</defs>
		<clipPath id="SVGID_00000150781354409612339230000001849122521443326638_">
			<use xlink:href="#SVGID_00000145755439869197546860000017695942509526396819_"  style="overflow:visible;"/>
		</clipPath>
	</g>
	<g>
		<defs>
			<polyline id="SVGID_00000057123727797617417920000008198326961973712016_" points="854.2,672 854.2,1372 154.2,1372 			"/>
		</defs>
		<clipPath id="SVGID_00000069356276115229340350000012737451647410944185_">
			<use xlink:href="#SVGID_00000057123727797617417920000008198326961973712016_"  style="overflow:visible;"/>
		</clipPath>
	</g>
	<g>
		<defs>
			<polyline id="SVGID_00000138545087853778363950000010173858828785161900_" points="867.5,672 867.5,1372 167.5,1372 			"/>
		</defs>
		<clipPath id="SVGID_00000106869288450301498890000016153804169099075518_">
			<use xlink:href="#SVGID_00000138545087853778363950000010173858828785161900_"  style="overflow:visible;"/>
		</clipPath>
	</g>
	<g>
		<defs>
			<polyline id="SVGID_00000020359499870135630450000002881528838069285026_" points="887.5,672 887.5,1372 187.5,1372 			"/>
		</defs>
		<clipPath id="SVGID_00000088835128618024507660000012785174678147328420_">
			<use xlink:href="#SVGID_00000020359499870135630450000002881528838069285026_"  style="overflow:visible;"/>
		</clipPath>
	</g>
	<g>
		<defs>
			<polyline id="SVGID_00000133492677777646134760000011146408638245852573_" points="939.6,672 939.6,1372 239.6,1372 			"/>
		</defs>
		<clipPath id="SVGID_00000079486999037812344780000003613304529077486497_">
			<use xlink:href="#SVGID_00000133492677777646134760000011146408638245852573_"  style="overflow:visible;"/>
		</clipPath>
	</g>
	<g>
		<defs>
			<polyline id="SVGID_00000176019497513864898010000003363188858009197196_" points="1029,672 1029,1372 329,1372 			"/>
		</defs>
		<clipPath id="SVGID_00000171683005901668863050000014116908890970767266_">
			<use xlink:href="#SVGID_00000176019497513864898010000003363188858009197196_"  style="overflow:visible;"/>
		</clipPath>
	</g>
	<g>
		<defs>
			<polyline id="SVGID_00000028312013490783863500000016155016785924066228_" points="1042.8,672 1042.8,1372 342.8,1372 			"/>
		</defs>
		<clipPath id="SVGID_00000018204496281831659910000017522773728410694076_">
			<use xlink:href="#SVGID_00000028312013490783863500000016155016785924066228_"  style="overflow:visible;"/>
		</clipPath>
	</g>
	<g>
		<defs>
			<polyline id="SVGID_00000026882954571947760510000000643270713464026752_" points="1071.7,672 1071.7,1372 371.7,1372 			"/>
		</defs>
		<clipPath id="SVGID_00000057127616506961540550000005110003746621603754_">
			<use xlink:href="#SVGID_00000026882954571947760510000000643270713464026752_"  style="overflow:visible;"/>
		</clipPath>
	</g>
	<g>
		<defs>
			<polyline id="SVGID_00000040539259035794556120000005490759175144695434_" points="1090.6,672 1090.6,1372 390.6,1372 			"/>
		</defs>
		<clipPath id="SVGID_00000163778224313883259730000015356598756400109740_">
			<use xlink:href="#SVGID_00000040539259035794556120000005490759175144695434_"  style="overflow:visible;"/>
		</clipPath>
	</g>
	<g>
		<defs>
			<polyline id="SVGID_00000150814702998957576970000010759323405666528419_" points="1107.2,672 1107.2,1372 407.2,1372 			"/>
		</defs>
		<clipPath id="SVGID_00000150103270616255371820000001075185709929846657_">
			<use xlink:href="#SVGID_00000150814702998957576970000010759323405666528419_"  style="overflow:visible;"/>
		</clipPath>
	</g>
</g>
</svg>
