<svg id="Groupe_158" data-name="Groupe 158" xmlns="http://www.w3.org/2000/svg" xmlns:xlink="http://www.w3.org/1999/xlink" width="84.974" height="66.002" viewBox="0 0 84.974 66.002">
  <defs>
    <clipPath id="clip-path">
      <rect id="Rectangle_150" data-name="Rectangle 150" width="84.974" height="66.002" fill="#319f9a"/>
    </clipPath>
  </defs>
  <g id="Groupe_157" data-name="Groupe 157" clip-path="url(#clip-path)">
    <path id="Tracé_950" data-name="Tracé 950" d="M55.336,40.449a1.67,1.67,0,0,0-2.355-.075l-2.513,2.349a1.664,1.664,0,0,0,2.28,2.424L55.26,42.8a1.659,1.659,0,0,0,.076-2.348m26.306-11.93h-22.6v-6.6h22.6ZM77.5,62.679H7.531V31.842h6.093V56.28a1.664,1.664,0,0,0,1.666,1.661H69.737A1.664,1.664,0,0,0,71.4,56.28V31.842H77.5ZM3.332,21.924h22.6v6.6H3.332Zm7.745-18.6H30.439L26.32,18.6H4.236Zm40.008,0L55.2,18.6H29.77L33.889,3.323Zm-21.822,25.2H55.712v-6.6H29.263Zm-12.307,26.1H68.072V31.841H16.956ZM80.72,18.6H58.656L54.537,3.323h19.2Zm4.253,1.611c0-.023,0-.046,0-.069,0-.045-.008-.09-.015-.133,0-.018,0-.036-.008-.054a1.651,1.651,0,0,0-.115-.369l-.005-.013-8.5-18.6A1.666,1.666,0,0,0,74.812,0H10A1.666,1.666,0,0,0,8.475.984L.145,19.586a.057.057,0,0,0,0,.009,1.536,1.536,0,0,0-.069.186l0,.01a1.673,1.673,0,0,0-.041.173c0,.019-.006.038-.009.057-.006.043-.011.086-.014.13,0,.022,0,.046,0,.068s0,.029,0,.044v9.918a1.663,1.663,0,0,0,1.666,1.661H4.2v32.5A1.664,1.664,0,0,0,5.865,66h73.3a1.664,1.664,0,0,0,1.666-1.661v-32.5h2.48a1.663,1.663,0,0,0,1.666-1.661V20.263c0-.017,0-.033,0-.05ZM31.012,35.45a1.669,1.669,0,0,0-2.355-.076L23.97,39.755a1.663,1.663,0,0,0,2.279,2.424L30.936,37.8a1.658,1.658,0,0,0,.076-2.348m1.927,3.714-2.513,2.349a1.664,1.664,0,0,0,2.279,2.424l2.513-2.349a1.664,1.664,0,1,0-2.279-2.424m25.282,4.278-4.687,4.381a1.664,1.664,0,0,0,2.279,2.424L60.5,45.866a1.663,1.663,0,1,0-2.279-2.424" fill="#319f9a" fill-rule="evenodd"/>
  </g>
</svg>
