<?xml version="1.0" encoding="utf-8"?>
<!-- Generator: Adobe Illustrator 26.3.1, SVG Export Plug-In . SVG Version: 6.00 Build 0)  -->
<svg version="1.1" id="Calque_1" xmlns="http://www.w3.org/2000/svg" xmlns:xlink="http://www.w3.org/1999/xlink" x="0px" y="0px"
	 viewBox="0 0 700 700" style="enable-background:new 0 0 700 700;" xml:space="preserve">
<g>
	<path d="M377.9,252.1c-0.6-0.6-1.2-1.1-1.9-1.6l-0.6-0.5c-7.3-6.2-16.1-9.5-25.4-9.5c-8.8,0-17.3,3-24.4,8.6l-0.8,0.6
		c-0.9,0.7-1.9,1.5-2.8,2.3c-15.3,15.4-15.3,40.4,0,55.8c1.4,1.4,2.9,2.5,4.5,3.7c6.9,5.1,15,7.8,23.3,7.8h0c9,0,17.6-3.1,24.8-9
		l0.8-0.6c0.8-0.6,1.6-1.2,2.4-2c5.9-5.9,9.7-13.6,11-22.1c0.8-5.2,0.5-10.5-0.9-15.7C386.2,263,382.8,257,377.9,252.1L377.9,252.1z
		"/>
	<path d="M521.9,110.5c-3.3-3.3-9.1-3.3-12.4,0c-1.7,1.7-2.6,3.9-2.6,6.2c0,2.3,0.9,4.5,2.6,6.2c41.9,41.9,65.1,97.7,65.1,157.1
		c0,59.3-23.1,115.1-65.1,157.1c-1.7,1.7-2.6,3.9-2.6,6.2c0,2.3,0.9,4.5,2.6,6.2c1.6,1.7,3.9,2.6,6.2,2.6c2.3,0,4.5-0.9,6.2-2.6
		c45.2-45.3,70.2-105.5,70.2-169.5C592.1,215.9,567.2,155.8,521.9,110.5L521.9,110.5z"/>
	<path d="M473.2,159.2c-3.3-3.3-9.1-3.3-12.4,0c-1.7,1.7-2.6,3.9-2.6,6.2s0.9,4.5,2.6,6.2c28.9,29,44.9,67.4,44.9,108.4
		c0,40.9-16,79.4-44.9,108.4c-3.4,3.4-3.4,8.9,0,12.4c1.7,1.6,3.8,2.5,6.2,2.5c2.3,0,4.5-0.9,6.2-2.6c32.2-32.2,50-75.1,50-120.8
		C523.2,234.3,505.5,191.5,473.2,159.2L473.2,159.2z"/>
	<path d="M402.7,217.3c-1.7,1.7-2.6,3.9-2.6,6.2c0,2.3,0.9,4.5,2.6,6.2c13.4,13.4,20.8,31.3,20.8,50.2c0,19-7.4,36.8-20.8,50.2
		c-1.7,1.7-2.6,3.9-2.6,6.2c0,2.3,0.9,4.5,2.6,6.2c1.6,1.7,3.9,2.6,6.2,2.6c2.3,0,4.5-0.9,6.2-2.6c16.7-16.7,25.9-39,25.9-62.6
		c0-23.7-9.2-45.9-25.9-62.6C411.8,214,406,214.1,402.7,217.3L402.7,217.3z"/>
	<path d="M125.4,280c0-59.3,23.1-115.1,65.1-157.1c1.7-1.7,2.6-3.9,2.6-6.2s-0.9-4.5-2.6-6.2c-3.3-3.3-9.1-3.3-12.4,0
		C132.8,155.8,107.9,216,107.9,280c0,64,24.9,124.2,70.2,169.4c1.7,1.7,3.9,2.6,6.2,2.6c2.3,0,4.5-0.9,6.2-2.6
		c1.7-1.6,2.6-3.8,2.6-6.2c0-2.3-0.9-4.5-2.6-6.2C148.5,395.1,125.4,339.3,125.4,280L125.4,280z"/>
	<path d="M239.2,171.6c3.4-3.4,3.4-9,0-12.4c-3.3-3.3-9.1-3.3-12.4,0c-32.2,32.2-49.9,75.1-49.9,120.8c0,45.7,17.7,88.6,49.9,120.8
		c1.7,1.6,3.8,2.6,6.2,2.6c2.3,0,4.5-0.9,6.2-2.6c1.7-1.6,2.6-3.8,2.6-6.2c0-2.3-0.9-4.5-2.6-6.2
		C179.4,328.6,179.4,231.3,239.2,171.6L239.2,171.6z"/>
	<path d="M297.3,229.7c3.4-3.4,3.4-9,0-12.3c-3.3-3.3-9.1-3.3-12.4,0c-34.5,34.5-34.5,90.7,0,125.2c1.7,1.6,3.9,2.6,6.2,2.6
		c2.3,0,4.5-0.9,6.2-2.6c3.4-3.4,3.4-9,0-12.4C269.6,302.5,269.6,257.4,297.3,229.7L297.3,229.7z"/>
	<g>
		<defs>
			<polyline id="SVGID_1_" points="859.2,647.5 859.2,1347.5 159.2,1347.5 			"/>
		</defs>
		<clipPath id="SVGID_00000049906283397475259520000015875612039675112613_">
			<use xlink:href="#SVGID_1_"  style="overflow:visible;"/>
		</clipPath>
	</g>
	<g>
		<defs>
			<polyline id="SVGID_00000076578584232666285540000004448716352142250884_" points="977.4,647.5 977.4,1347.5 277.4,1347.5 			"/>
		</defs>
		<clipPath id="SVGID_00000067946380084138680750000002632962421675652487_">
			<use xlink:href="#SVGID_00000076578584232666285540000004448716352142250884_"  style="overflow:visible;"/>
		</clipPath>
	</g>
	<g>
		<defs>
			<polyline id="SVGID_00000040560693358435720720000016765559435050810006_" points="1012.1,647.5 1012.1,1347.5 312.1,1347.5 			
				"/>
		</defs>
		<clipPath id="SVGID_00000063602492602115745020000000859136313088939187_">
			<use xlink:href="#SVGID_00000040560693358435720720000016765559435050810006_"  style="overflow:visible;"/>
		</clipPath>
	</g>
	<g>
		<defs>
			<polyline id="SVGID_00000145038889268656346220000005850753450493814417_" points="1083.9,647.5 1083.9,1347.5 383.9,1347.5 			
				"/>
		</defs>
		<clipPath id="SVGID_00000145765185667492343560000011527309741059210127_">
			<use xlink:href="#SVGID_00000145038889268656346220000005850753450493814417_"  style="overflow:visible;"/>
		</clipPath>
	</g>
	<g>
		<defs>
			<polyline id="SVGID_00000133488562746929722300000010934968023221937288_" points="1098.3,647.5 1098.3,1347.5 398.3,1347.5 			
				"/>
		</defs>
		<clipPath id="SVGID_00000053528859006297541180000011371504444225314434_">
			<use xlink:href="#SVGID_00000133488562746929722300000010934968023221937288_"  style="overflow:visible;"/>
		</clipPath>
	</g>
	<g>
		<defs>
			<polyline id="SVGID_00000122686810883431150580000016313907461364299394_" points="1159.6,647.5 1159.6,1347.5 459.6,1347.5 			
				"/>
		</defs>
		<clipPath id="SVGID_00000133529831321121758880000007445720143462400189_">
			<use xlink:href="#SVGID_00000122686810883431150580000016313907461364299394_"  style="overflow:visible;"/>
		</clipPath>
	</g>
	<g>
		<defs>
			<line id="SVGID_00000149382285752629174090000012517904714041737119_" x1="782.7" y1="1376.7" x2="82.7" y2="1376.7"/>
		</defs>
		<clipPath id="SVGID_00000160167472807574290990000014506783401434938035_">
			<use xlink:href="#SVGID_00000149382285752629174090000012517904714041737119_"  style="overflow:visible;"/>
		</clipPath>
	</g>
	<g>
		<defs>
			<line id="SVGID_00000145745924282111402990000001741266062045556121_" x1="797.1" y1="1376.7" x2="97.1" y2="1376.7"/>
		</defs>
		<clipPath id="SVGID_00000103255750185941473850000007396055042022322594_">
			<use xlink:href="#SVGID_00000145745924282111402990000001741266062045556121_"  style="overflow:visible;"/>
		</clipPath>
	</g>
	<g>
		<defs>
			<polyline id="SVGID_00000103249404618138038480000016400042949930808245_" points="857.7,676.7 857.7,1376.7 157.7,1376.7 			"/>
		</defs>
		<clipPath id="SVGID_00000072974760219129513590000002272158698669888162_">
			<use xlink:href="#SVGID_00000103249404618138038480000016400042949930808245_"  style="overflow:visible;"/>
		</clipPath>
	</g>
	<g>
		<defs>
			<polyline id="SVGID_00000137112964378224750770000015188202076249029816_" points="871.6,676.7 871.6,1376.7 171.6,1376.7 			"/>
		</defs>
		<clipPath id="SVGID_00000008113967250606222470000006650578256903356344_">
			<use xlink:href="#SVGID_00000137112964378224750770000015188202076249029816_"  style="overflow:visible;"/>
		</clipPath>
	</g>
	<g>
		<defs>
			<polyline id="SVGID_00000025406101766494123630000000060078554185196448_" points="892.4,676.7 892.4,1376.7 192.4,1376.7 			"/>
		</defs>
		<clipPath id="SVGID_00000144309157877787576220000001494709247713702284_">
			<use xlink:href="#SVGID_00000025406101766494123630000000060078554185196448_"  style="overflow:visible;"/>
		</clipPath>
	</g>
	<g>
		<defs>
			<polyline id="SVGID_00000135659270616126462350000006435363039143261575_" points="946.7,676.7 946.7,1376.7 246.7,1376.7 			"/>
		</defs>
		<clipPath id="SVGID_00000116956408840184977520000004428725620612866696_">
			<use xlink:href="#SVGID_00000135659270616126462350000006435363039143261575_"  style="overflow:visible;"/>
		</clipPath>
	</g>
	<g>
		<defs>
			<polyline id="SVGID_00000096746699114183138600000016572460738559258773_" points="966.7,676.7 966.7,1376.7 266.7,1376.7 			"/>
		</defs>
		<clipPath id="SVGID_00000036949167414109798680000004949216561418457002_">
			<use xlink:href="#SVGID_00000096746699114183138600000016572460738559258773_"  style="overflow:visible;"/>
		</clipPath>
	</g>
	<g>
		<defs>
			<polyline id="SVGID_00000122697904450088544290000014523727352694844807_" points="1039.8,676.7 1039.8,1376.7 339.8,1376.7 			
				"/>
		</defs>
		<clipPath id="SVGID_00000008124011500927700990000016774045032148982447_">
			<use xlink:href="#SVGID_00000122697904450088544290000014523727352694844807_"  style="overflow:visible;"/>
		</clipPath>
	</g>
	<g>
		<defs>
			<polyline id="SVGID_00000021120717110062871000000009557927965196470932_" points="1054.2,676.7 1054.2,1376.7 354.2,1376.7 			
				"/>
		</defs>
		<clipPath id="SVGID_00000044179026353596918790000009973526139543199654_">
			<use xlink:href="#SVGID_00000021120717110062871000000009557927965196470932_"  style="overflow:visible;"/>
		</clipPath>
	</g>
	<g>
		<defs>
			<polyline id="SVGID_00000082336661544670878640000014458884253066892212_" points="1084.2,676.7 1084.2,1376.7 384.2,1376.7 			
				"/>
		</defs>
		<clipPath id="SVGID_00000022530537588189001700000004829570482833013134_">
			<use xlink:href="#SVGID_00000082336661544670878640000014458884253066892212_"  style="overflow:visible;"/>
		</clipPath>
	</g>
	<g>
		<defs>
			<polyline id="SVGID_00000052796038797579320690000017349866385760254394_" points="1104,676.7 1104,1376.7 404,1376.7 			"/>
		</defs>
		<clipPath id="SVGID_00000067229880347191336290000010713982722981370551_">
			<use xlink:href="#SVGID_00000052796038797579320690000017349866385760254394_"  style="overflow:visible;"/>
		</clipPath>
	</g>
	<g>
		<defs>
			<polyline id="SVGID_00000111876649265111116430000012268310221083550649_" points="1121.3,676.7 1121.3,1376.7 421.3,1376.7 			
				"/>
		</defs>
		<clipPath id="SVGID_00000082342933636270985820000016209733306319244474_">
			<use xlink:href="#SVGID_00000111876649265111116430000012268310221083550649_"  style="overflow:visible;"/>
		</clipPath>
	</g>
</g>
</svg>
