<svg id="Groupe_156" data-name="Groupe 156" xmlns="http://www.w3.org/2000/svg" xmlns:xlink="http://www.w3.org/1999/xlink" width="44.545" height="76.999" viewBox="0 0 44.545 76.999">
  <defs>
    <clipPath id="clip-path">
      <rect id="Rectangle_149" data-name="Rectangle 149" width="44.545" height="76.998" fill="#319f9a"/>
    </clipPath>
  </defs>
  <g id="Groupe_155" data-name="Groupe 155" clip-path="url(#clip-path)">
    <path id="Tracé_946" data-name="Tracé 946" d="M43.353,76.975H33.122a1.192,1.192,0,0,1-1.184-1.084l-.066-.687c-.38-4.056-4.577-7.242-9.56-7.242s-9.146,3.187-9.559,7.242l-.058.687h0a1.2,1.2,0,0,1-1.183,1.084H1.19A1.2,1.2,0,0,1,.131,75.229a213.768,213.768,0,0,0,10.264-23.9c4.676-12.845,10.28-32.022,10.4-50.149A1.192,1.192,0,0,1,21.982,0h.662a1.192,1.192,0,0,1,1.192,1.184c.091,16.86,5.711,36.094,10.379,49.263A259.212,259.212,0,0,0,44.42,75.277,1.192,1.192,0,0,1,43.353,77ZM34.2,74.591h7.267c-1.655-3.559-5.595-12.316-9.5-23.35-3.625-10.231-7.8-24.1-9.609-37.767-1.738,14.46-6.025,28.53-9.733,38.71A229.528,229.528,0,0,1,3.127,74.59h7.3c.712-5.09,5.843-9.013,11.885-9.013S33.5,69.5,34.2,74.59Z" transform="translate(0)" fill="#319f9a"/>
    <path id="Tracé_947" data-name="Tracé 947" d="M128.64,91.181h-6.108a1.2,1.2,0,1,1,0-2.393h6.108a1.2,1.2,0,1,1,0,2.393" transform="translate(-103.314 -75.662)" fill="#319f9a"/>
    <path id="Tracé_948" data-name="Tracé 948" d="M116.837,165.455H105.514a1.192,1.192,0,0,1,0-2.384h11.323a1.192,1.192,0,0,1,0,2.384" transform="translate(-88.904 -138.969)" fill="#319f9a"/>
    <path id="Tracé_949" data-name="Tracé 949" d="M80.4,335.8H53.779a1.192,1.192,0,1,1,0-2.384H80.4a1.192,1.192,0,1,1,0,2.384" transform="translate(-44.815 -284.141)" fill="#319f9a"/>
  </g>
</svg>
