<svg xmlns="http://www.w3.org/2000/svg" xmlns:xlink="http://www.w3.org/1999/xlink" width="704.77" height="583.112" viewBox="0 0 704.77 583.112">
  <defs>
    <clipPath id="clip-path">
      <rect id="Rectangle_20" data-name="Rectangle 20" width="442.894" height="448.969" fill="none"/>
    </clipPath>
    <clipPath id="clip-path-2">
      <rect id="Rectangle_19" data-name="Rectangle 19" width="476.409" height="482.943" fill="none"/>
    </clipPath>
  </defs>
  <g id="Groupe_179" data-name="Groupe 179" transform="translate(-233.23 -1290.894)">
    <g id="Groupe_27" data-name="Groupe 27" transform="translate(819.561 1466.32) rotate(113)" clip-path="url(#clip-path)">
      <g id="Groupe_26" data-name="Groupe 26" transform="translate(-33.515 -33.975)">
        <g id="Groupe_25" data-name="Groupe 25" clip-path="url(#clip-path-2)">
          <g id="Groupe_24" data-name="Groupe 24" opacity="0.14" style="mix-blend-mode: multiply;isolation: isolate">
            <g id="Groupe_23" data-name="Groupe 23">
              <g id="Groupe_22" data-name="Groupe 22" clip-path="url(#clip-path-2)">
                <g id="Groupe_21" data-name="Groupe 21">
                  <g id="Groupe_20" data-name="Groupe 20" clip-path="url(#clip-path-2)">
                    <path id="Tracé_51" data-name="Tracé 51" d="M83.91,81.126C59.726,103.3,69.782,154.5,110.234,216.791c16.285,25.081-29.2,84.305,68.638,122.387-12.741,22.154-2.933,52.661,17.7,67.734s48.917,16.5,73.4,9.164,45.858-22.408,65.83-38.352c7.327-5.847,14.574-11.9,21.522-18.267C373.7,344.446,388.4,327.717,398.382,308c14.224-28.08,33.634-47.529,18.856-75.322-19.266-36.248-66.993-55.39-98.887-39.264-8.978-54.45-39.743-65.494-64.373-78.794C162.843,65.4,107.327,59.658,83.91,81.126" transform="translate(19.701 19.244)" fill="#319f9a"/>
                  </g>
                </g>
              </g>
            </g>
          </g>
        </g>
      </g>
    </g>
    <path id="Union_1" data-name="Union 1" d="M-1635.028,110.452c0-39.764,33.528-72,74.886-72a76.539,76.539,0,0,1,44.982,14.432c14.682-22.854,43.89-38.432,77.524-38.432,48.385,0,87.609,32.236,87.609,72s-39.224,72-87.609,72c-20.979,0-40.235-6.06-55.32-16.166-12.22,23.8-37.716,40.167-67.187,40.167C-1601.5,182.452-1635.028,150.216-1635.028,110.452Z" transform="translate(2288.028 1473.548)" fill="#a8c9af" opacity="0.477"/>
  </g>
</svg>
