<?xml version="1.0" encoding="utf-8"?>
<!-- Generator: Adobe Illustrator 26.3.1, SVG Export Plug-In . SVG Version: 6.00 Build 0)  -->
<svg version="1.1" id="Calque_1" xmlns="http://www.w3.org/2000/svg" xmlns:xlink="http://www.w3.org/1999/xlink" x="0px" y="0px"
	 viewBox="0 0 700 700" style="enable-background:new 0 0 700 700;" xml:space="preserve">
<g>
	<path d="M533,58.8H167c-10.1,0-19.8,4-27,11.2c-7.2,7.2-11.2,16.9-11.2,27v366c0,10.1,4,19.8,11.2,27c7.2,7.2,16.9,11.2,27,11.2
		h366c10.1,0,19.8-4,27-11.2c7.2-7.2,11.2-16.9,11.2-27V97c0-10.1-4-19.8-11.2-27C552.8,62.8,543.1,58.8,533,58.8z M533,478.8H254.8
		v-92.4h159.7c6.2,0,11.2-5,11.2-11.2c0-6.2-5-11.2-11.2-11.2H243.6c-6.2,0-11.2,5-11.2,11.2v103.6H167c-4.2,0-8.2-1.7-11.2-4.6
		c-3-3-4.6-7-4.6-11.2V97c0-4.2,1.7-8.2,4.6-11.2c3-3,7-4.6,11.2-4.6h115.1v182h-49.7c-6.2,0-11.2,5-11.2,11.2
		c0,6.2,5,11.2,11.2,11.2h60.9c3,0,5.8-1.2,7.9-3.3c2.1-2.1,3.3-4.9,3.3-7.9V81.2H533c4.2,0,8.2,1.7,11.2,4.6c3,3,4.6,7,4.6,11.2
		v150.2H411.6v-40c0-6.2-5-11.2-11.2-11.2c-6.2,0-11.2,5-11.2,11.2v95.2c0,6.2,5,11.2,11.2,11.2c6.2,0,11.2-5,11.2-11.2v-32.8h137.2
		V463c0,4.2-1.7,8.2-4.6,11.2C541.2,477.1,537.2,478.8,533,478.8L533,478.8z"/>
	<g>
		<defs>
			<line id="SVGID_1_" x1="855.6" y1="1344" x2="155.6" y2="1344"/>
		</defs>
		<clipPath id="SVGID_00000144314765970829904060000007772906390002399124_">
			<use xlink:href="#SVGID_1_"  style="overflow:visible;"/>
		</clipPath>
	</g>
	<g>
		<defs>
			<polyline id="SVGID_00000118367820689334269490000008755288652506013104_" points="980.3,644 980.3,1344 280.3,1344 			"/>
		</defs>
		<clipPath id="SVGID_00000143603347272543569580000005135925436397512618_">
			<use xlink:href="#SVGID_00000118367820689334269490000008755288652506013104_"  style="overflow:visible;"/>
		</clipPath>
	</g>
	<g>
		<defs>
			<polyline id="SVGID_00000114032695833998122730000006605374199150797493_" points="1048.8,644 1048.8,1344 348.8,1344 			"/>
		</defs>
		<clipPath id="SVGID_00000142861789502546536810000002787606120177969071_">
			<use xlink:href="#SVGID_00000114032695833998122730000006605374199150797493_"  style="overflow:visible;"/>
		</clipPath>
	</g>
	<g>
		<defs>
			<polyline id="SVGID_00000119107681429109560280000000033488182754208393_" points="1067.7,644 1067.7,1344 367.7,1344 			"/>
		</defs>
		<clipPath id="SVGID_00000109009933925763862810000010801091999606712991_">
			<use xlink:href="#SVGID_00000119107681429109560280000000033488182754208393_"  style="overflow:visible;"/>
		</clipPath>
	</g>
	<g>
		<defs>
			<polyline id="SVGID_00000160148500222956667630000005355002110335562923_" points="1085.9,644 1085.9,1344 385.9,1344 			"/>
		</defs>
		<clipPath id="SVGID_00000151515965732128078420000005038758784615495590_">
			<use xlink:href="#SVGID_00000160148500222956667630000005355002110335562923_"  style="overflow:visible;"/>
		</clipPath>
	</g>
	<g>
		<defs>
			<polyline id="SVGID_00000088833115896303265690000006415966466043029436_" points="1104.8,644 1104.8,1344 404.8,1344 			"/>
		</defs>
		<clipPath id="SVGID_00000168820081822199289150000009451529283066870207_">
			<use xlink:href="#SVGID_00000088833115896303265690000006415966466043029436_"  style="overflow:visible;"/>
		</clipPath>
	</g>
	<g>
		<defs>
			<polyline id="SVGID_00000051380182108366887980000014225125505419412410_" points="1124.8,644 1124.8,1344 424.8,1344 			"/>
		</defs>
		<clipPath id="SVGID_00000096043060182230838440000016046742100673633923_">
			<use xlink:href="#SVGID_00000051380182108366887980000014225125505419412410_"  style="overflow:visible;"/>
		</clipPath>
	</g>
	<g>
		<defs>
			<polyline id="SVGID_00000034806573912959719240000010488096098877751458_" points="1171.2,644 1171.2,1344 471.2,1344 			"/>
		</defs>
		<clipPath id="SVGID_00000103224995161086591180000009832485020251129498_">
			<use xlink:href="#SVGID_00000034806573912959719240000010488096098877751458_"  style="overflow:visible;"/>
		</clipPath>
	</g>
	<g>
		<defs>
			<polyline id="SVGID_00000041278990342554354220000013274190468205979561_" points="1204.5,644 1204.5,1344 504.5,1344 			"/>
		</defs>
		<clipPath id="SVGID_00000143615178264514118550000005834614040069190802_">
			<use xlink:href="#SVGID_00000041278990342554354220000013274190468205979561_"  style="overflow:visible;"/>
		</clipPath>
	</g>
	<g>
		<defs>
			<line id="SVGID_00000122681709002227404500000000946705900354716564_" x1="782.2" y1="1372" x2="82.2" y2="1372"/>
		</defs>
		<clipPath id="SVGID_00000115504583253500012270000017845736922325776298_">
			<use xlink:href="#SVGID_00000122681709002227404500000000946705900354716564_"  style="overflow:visible;"/>
		</clipPath>
	</g>
	<g>
		<defs>
			<line id="SVGID_00000075857145605695835820000007351153275529121419_" x1="796" y1="1372" x2="96" y2="1372"/>
		</defs>
		<clipPath id="SVGID_00000165196633378117728750000003396757769951100329_">
			<use xlink:href="#SVGID_00000075857145605695835820000007351153275529121419_"  style="overflow:visible;"/>
		</clipPath>
	</g>
	<g>
		<defs>
			<line id="SVGID_00000068652846597516324960000008959251014546063009_" x1="854.2" y1="1372" x2="154.2" y2="1372"/>
		</defs>
		<clipPath id="SVGID_00000145742489708792862290000012957541377314180001_">
			<use xlink:href="#SVGID_00000068652846597516324960000008959251014546063009_"  style="overflow:visible;"/>
		</clipPath>
	</g>
	<g>
		<defs>
			<line id="SVGID_00000176763830456977263200000016105149090535499401_" x1="887.5" y1="1372" x2="187.5" y2="1372"/>
		</defs>
		<clipPath id="SVGID_00000054247785818669602890000005151876645716293027_">
			<use xlink:href="#SVGID_00000176763830456977263200000016105149090535499401_"  style="overflow:visible;"/>
		</clipPath>
	</g>
	<g>
		<defs>
			<polyline id="SVGID_00000056417874189297972560000012582986362495807145_" points="939.6,672 939.6,1372 239.6,1372 			"/>
		</defs>
		<clipPath id="SVGID_00000037654120390688658840000012156696923299205802_">
			<use xlink:href="#SVGID_00000056417874189297972560000012582986362495807145_"  style="overflow:visible;"/>
		</clipPath>
	</g>
	<g>
		<defs>
			<polyline id="SVGID_00000108281762345519743650000014246089497007190933_" points="958.9,672 958.9,1372 258.9,1372 			"/>
		</defs>
		<clipPath id="SVGID_00000072260587831997979300000014087313913931089536_">
			<use xlink:href="#SVGID_00000108281762345519743650000014246089497007190933_"  style="overflow:visible;"/>
		</clipPath>
	</g>
	<g>
		<defs>
			<polyline id="SVGID_00000013903900061326372820000012284971831601344172_" points="978.8,672 978.8,1372 278.8,1372 			"/>
		</defs>
		<clipPath id="SVGID_00000003074398333530425090000003214501720631257756_">
			<use xlink:href="#SVGID_00000013903900061326372820000012284971831601344172_"  style="overflow:visible;"/>
		</clipPath>
	</g>
	<g>
		<defs>
			<polyline id="SVGID_00000055687520865022099610000010076783249477356678_" points="1029,672 1029,1372 329,1372 			"/>
		</defs>
		<clipPath id="SVGID_00000129171153173073322930000001914144572103154587_">
			<use xlink:href="#SVGID_00000055687520865022099610000010076783249477356678_"  style="overflow:visible;"/>
		</clipPath>
	</g>
	<g>
		<defs>
			<polyline id="SVGID_00000069362944363294487150000011554859997023292844_" points="1042.8,672 1042.8,1372 342.8,1372 			"/>
		</defs>
		<clipPath id="SVGID_00000181063263395537117400000006365143287827073433_">
			<use xlink:href="#SVGID_00000069362944363294487150000011554859997023292844_"  style="overflow:visible;"/>
		</clipPath>
	</g>
	<g>
		<defs>
			<polyline id="SVGID_00000096750898533032358340000011022014888643917226_" points="1071.7,672 1071.7,1372 371.7,1372 			"/>
		</defs>
		<clipPath id="SVGID_00000049219284507703970770000010877800842593434280_">
			<use xlink:href="#SVGID_00000096750898533032358340000011022014888643917226_"  style="overflow:visible;"/>
		</clipPath>
	</g>
	<g>
		<defs>
			<polyline id="SVGID_00000124158145659374900240000015468903921826333854_" points="1107.2,672 1107.2,1372 407.2,1372 			"/>
		</defs>
		<clipPath id="SVGID_00000023257344645452677510000005933846685993233547_">
			<use xlink:href="#SVGID_00000124158145659374900240000015468903921826333854_"  style="overflow:visible;"/>
		</clipPath>
	</g>
</g>
</svg>
