<svg xmlns="http://www.w3.org/2000/svg" xmlns:xlink="http://www.w3.org/1999/xlink" width="87" height="87" viewBox="0 0 87 87">
  <defs>
    <clipPath id="clip-path">
      <rect id="Rectangle_162" data-name="Rectangle 162" width="43" height="55" transform="translate(0 0.223)" fill="#319f9a"/>
    </clipPath>
  </defs>
  <g id="Groupe_179" data-name="Groupe 179" transform="translate(-274.25 -2327)">
    <g id="Rectangle_161" data-name="Rectangle 161" transform="translate(274.25 2327)" fill="none" stroke="#319f9a" stroke-width="3">
      <rect width="87" height="87" rx="10" stroke="none"/>
      <rect x="1.5" y="1.5" width="84" height="84" rx="8.5" fill="none"/>
    </g>
    <g id="Groupe_164" data-name="Groupe 164" transform="translate(301.284 2344.263)">
      <g id="Groupe_163" data-name="Groupe 163" transform="translate(-0.034 -0.486)" clip-path="url(#clip-path)">
        <path id="Tracé_955" data-name="Tracé 955" d="M79.163,52.5H70V70.825h9.163a9.163,9.163,0,0,0,0-18.325m0,15.271H73.054V55.554h6.108a6.108,6.108,0,0,1,0,12.217" transform="translate(-57.707 -42.997)" fill="#319f9a"/>
        <path id="Tracé_956" data-name="Tracé 956" d="M24.434,0H1.527A1.565,1.565,0,0,0,0,1.527V53.449a1.565,1.565,0,0,0,1.527,1.527H13.744a1.565,1.565,0,0,0,1.527-1.527v-16.8h9.163A18.325,18.325,0,1,0,24.434,0m0,33.6H12.217V51.922H3.054V3.054h21.38a15.271,15.271,0,1,1,0,30.542" transform="translate(0.076 0.34)" fill="#319f9a"/>
      </g>
    </g>
  </g>
</svg>
