<svg id="Groupe_173" data-name="Groupe 173" xmlns="http://www.w3.org/2000/svg" xmlns:xlink="http://www.w3.org/1999/xlink" width="71.578" height="71.578" viewBox="0 0 71.578 71.578">
  <defs>
    <clipPath id="clip-path">
      <rect id="Rectangle_165" data-name="Rectangle 165" width="71.578" height="71.578" fill="#319f9a"/>
    </clipPath>
  </defs>
  <g id="Groupe_172" data-name="Groupe 172" clip-path="url(#clip-path)">
    <path id="Tracé_966" data-name="Tracé 966" d="M65.4,0H6.179A6.189,6.189,0,0,0,0,6.179V65.4a6.189,6.189,0,0,0,6.179,6.179H65.4A6.189,6.189,0,0,0,71.578,65.4V6.179A6.189,6.189,0,0,0,65.4,0m0,67.954H20.386V53H46.218a1.812,1.812,0,0,0,0-3.624H18.574a1.812,1.812,0,0,0-1.813,1.812V67.953H6.179A2.564,2.564,0,0,1,3.624,65.4V6.178A2.563,2.563,0,0,1,6.179,3.623H24.808V33.07H16.762a1.812,1.812,0,0,0,0,3.625H26.62a1.812,1.812,0,0,0,1.812-1.813V3.623H65.4a2.563,2.563,0,0,1,2.555,2.555v24.3h-22.2V24.009a1.812,1.812,0,0,0-3.625,0v15.4a1.812,1.812,0,1,0,3.625,0V34.1h22.2V65.4A2.564,2.564,0,0,1,65.4,67.952Z" fill="#319f9a"/>
  </g>
</svg>
