<svg id="Groupe_166" data-name="Groupe 166" xmlns="http://www.w3.org/2000/svg" xmlns:xlink="http://www.w3.org/1999/xlink" width="76.56" height="82.321" viewBox="0 0 76.56 82.321">
  <defs>
    <clipPath id="clip-path">
      <rect id="Rectangle_163" data-name="Rectangle 163" width="76.56" height="82.321" fill="#319f9a"/>
    </clipPath>
  </defs>
  <g id="Groupe_165" data-name="Groupe 165" clip-path="url(#clip-path)">
    <path id="Tracé_957" data-name="Tracé 957" d="M8.73,0a1.962,1.962,0,1,0,.184,3.92h1.96V45.4a1.96,1.96,0,1,0,3.92,0V27.442H36.353v19.6H14.793V45.02a1.961,1.961,0,1,0-3.92,0v2.021H2.054a1.7,1.7,0,0,0-.184,0,1.962,1.962,0,0,0,.184,3.92h1.96V78.4H2.054c-.062,0-.122,0-.184,0a1.962,1.962,0,1,0,.184,3.92H74.572a1.96,1.96,0,1,0,0-3.92h-2.94V50.961h2.94a1.96,1.96,0,1,0,0-3.92H65.752V3.922h1.96a1.96,1.96,0,1,0,0-3.92H8.914c-.062,0-.122,0-.184,0Zm6.064,3.92H36.353v19.6H14.793Zm25.479,0H61.832v19.6H40.273ZM24.532,5.852a1.959,1.959,0,0,0-1.47.766l-3.92,4.9a1.961,1.961,0,0,0,3.062,2.45l3.92-4.9a1.961,1.961,0,0,0-1.593-3.216Zm5.757,3.92a1.96,1.96,0,0,0-1.316.7l-5.88,6.86a1.967,1.967,0,0,0,3,2.542l5.879-6.86a1.96,1.96,0,0,0-1.684-3.246Zm9.984,17.671H61.832v19.6H40.273Zm9.739,1.929a1.96,1.96,0,0,0-1.47.766l-3.92,4.9a1.961,1.961,0,1,0,3.062,2.45l3.92-4.9a1.96,1.96,0,0,0-1.592-3.216Zm5.757,3.92a1.961,1.961,0,0,0-1.316.7l-5.88,6.86a1.966,1.966,0,0,0,3,2.542l5.88-6.86a1.96,1.96,0,0,0-1.684-3.246ZM7.934,50.962h8.82V78.4H7.934Zm12.74,0h8.82V78.4h-8.82Zm12.74,0h8.819V78.4H33.413Zm12.74,0h8.819V78.4H46.153Zm12.74,0h8.819V78.4H58.893Z" transform="translate(0 -0.001)" fill="#319f9a"/>
  </g>
</svg>
